<svg xmlns="http://www.w3.org/2000/svg" xmlns:xlink="http://www.w3.org/1999/xlink" width="500" zoomAndPan="magnify" viewBox="88 80 190 190" height="500" preserveAspectRatio="xMidYMid meet" version="1.0"><defs><g/><clipPath id="62b26242b2"><rect x="0" width="187" y="0" height="241"/></clipPath></defs><g transform="matrix(1, 0, 0, 1, 87, 73)"><g clip-path="url(#62b26242b2)"><g fill="#2e4a3e" fill-opacity="1"><g transform="translate(40.51475, 185.135619)"><g><path d="M 57.828125 -166.734375 C 55.097656 -166.734375 52.769531 -165.769531 50.84375 -163.84375 C 48.914062 -161.914062 47.953125 -159.585938 47.953125 -156.859375 L 47.953125 -10.84375 C 47.953125 -8.113281 48.914062 -5.742188 50.84375 -3.734375 C 52.769531 -1.722656 55.097656 -0.71875 57.828125 -0.71875 C 58.472656 -0.71875 58.796875 -0.476562 58.796875 0 C 58.796875 0.476562 58.472656 0.71875 57.828125 0.71875 L 10.84375 0.71875 C 10.363281 0.71875 10.125 0.476562 10.125 0 C 10.125 -0.476562 10.363281 -0.71875 10.84375 -0.71875 C 13.738281 -0.71875 16.148438 -1.722656 18.078125 -3.734375 C 20.003906 -5.742188 20.96875 -8.113281 20.96875 -10.84375 L 20.96875 -156.859375 C 20.96875 -159.585938 20.003906 -161.914062 18.078125 -163.84375 C 16.148438 -165.769531 13.738281 -166.734375 10.84375 -166.734375 C 10.363281 -166.734375 10.125 -167.054688 10.125 -167.703125 C 10.125 -168.179688 10.363281 -168.421875 10.84375 -168.421875 L 57.828125 -168.421875 C 58.472656 -168.421875 58.796875 -168.179688 58.796875 -167.703125 C 58.796875 -167.054688 58.472656 -166.734375 57.828125 -166.734375 Z M 144.09375 -0.71875 C 144.726562 -0.71875 145.046875 -0.476562 145.046875 0 C 145.046875 0.476562 144.726562 0.71875 144.09375 0.71875 L 104.328125 0.71875 C 104.171875 0.71875 104.09375 0.71875 104.09375 0.71875 L 93.25 0.71875 C 92.769531 0.71875 92.53125 0.476562 92.53125 0 C 92.53125 -0.476562 92.769531 -0.71875 93.25 -0.71875 C 95.65625 -0.71875 97.34375 -1.519531 98.3125 -3.125 C 99.4375 -4.894531 99.113281 -7.304688 97.34375 -10.359375 L 61.921875 -72.28125 C 61.921875 -72.445312 61.921875 -72.609375 61.921875 -72.765625 C 61.765625 -72.765625 61.765625 -72.847656 61.921875 -73.015625 C 61.921875 -73.171875 61.921875 -73.25 61.921875 -73.25 L 124.578125 -157.34375 C 126.984375 -160.550781 127.703125 -163.039062 126.734375 -164.8125 C 126.253906 -165.613281 125.613281 -166.132812 124.8125 -166.375 C 124.007812 -166.613281 123.207031 -166.734375 122.40625 -166.734375 C 121.925781 -166.734375 121.6875 -167.054688 121.6875 -167.703125 C 121.6875 -168.179688 121.925781 -168.421875 122.40625 -168.421875 L 144.09375 -168.421875 C 144.726562 -168.421875 145.046875 -168.179688 145.046875 -167.703125 C 145.046875 -167.054688 144.726562 -166.734375 144.09375 -166.734375 C 141.195312 -166.734375 137.984375 -165.726562 134.453125 -163.71875 C 130.921875 -161.71875 128.03125 -159.269531 125.78125 -156.375 L 80 -94.9375 L 127.953125 -11.078125 C 129.554688 -8.191406 131.921875 -5.742188 135.046875 -3.734375 C 138.179688 -1.722656 141.195312 -0.71875 144.09375 -0.71875 Z M 144.09375 -0.71875 "/></g></g></g><g fill="#2e4a3e" fill-opacity="1"><g transform="translate(0.995907, 185.135619)"><g><path d="M 141.203125 -168.421875 C 141.679688 -168.421875 141.921875 -168.179688 141.921875 -167.703125 L 141.921875 -127.46875 C 141.921875 -126.976562 141.679688 -126.734375 141.203125 -126.734375 C 140.710938 -126.734375 140.46875 -126.976562 140.46875 -127.46875 C 140.46875 -134.695312 138.660156 -141.28125 135.046875 -147.21875 C 131.441406 -153.164062 126.664062 -157.90625 120.71875 -161.4375 C 114.769531 -164.96875 108.179688 -166.734375 100.953125 -166.734375 L 87.21875 -166.734375 L 87.21875 -10.84375 C 87.21875 -8.113281 88.179688 -5.742188 90.109375 -3.734375 C 92.046875 -1.722656 94.378906 -0.71875 97.109375 -0.71875 C 97.742188 -0.71875 98.0625 -0.476562 98.0625 0 C 98.0625 0.476562 97.742188 0.71875 97.109375 0.71875 L 50.125 0.71875 C 49.632812 0.71875 49.390625 0.476562 49.390625 0 C 49.390625 -0.476562 49.632812 -0.71875 50.125 -0.71875 C 53.007812 -0.71875 55.414062 -1.722656 57.34375 -3.734375 C 59.269531 -5.742188 60.234375 -8.113281 60.234375 -10.84375 L 60.234375 -166.734375 L 46.265625 -166.734375 C 39.035156 -166.734375 32.445312 -164.96875 26.5 -161.4375 C 20.5625 -157.90625 15.820312 -153.164062 12.28125 -147.21875 C 8.75 -141.28125 6.984375 -134.695312 6.984375 -127.46875 C 6.984375 -126.976562 6.664062 -126.734375 6.03125 -126.734375 C 5.539062 -126.734375 5.296875 -126.976562 5.296875 -127.46875 L 5.296875 -167.703125 C 5.296875 -168.179688 5.539062 -168.421875 6.03125 -168.421875 Z M 141.203125 -168.421875 "/></g></g></g></g></g></svg>